<?xml version="1.0" encoding="utf-8"?>
<!-- Generator: Adobe Illustrator 24.3.0, SVG Export Plug-In . SVG Version: 6.00 Build 0)  -->
<svg version="1.1" id="Capa_1" xmlns="http://www.w3.org/2000/svg" xmlns:xlink="http://www.w3.org/1999/xlink" x="0px" y="0px"
	 viewBox="0 0 178.8 101.9" style="enable-background:new 0 0 178.8 101.9;" xml:space="preserve">
<style type="text/css">
	.st0{fill:#00A49F;}
</style>
<rect x="92.7" class="st0" width="24.2" height="101.9"/>
<path class="st0" d="M42,8.9c-23.2,0-42,18.8-42,42s18.8,42,42,42s42-18.8,42-42S65.2,8.9,42,8.9 M42,63.7c-7,0-12.7-5.7-12.7-12.7
	c0-7,5.7-12.7,12.7-12.7c7,0,12.7,5.7,12.7,12.7C54.7,58,49,63.7,42,63.7"/>
<polygon class="st0" points="178,25.4 161.9,25.4 152.5,34.9 143.1,25.4 127,25.4 127,41.8 136.3,51 127,60.3 127,76.4 143.3,76.4 
	152.5,67.2 161.7,76.4 178,76.4 178,60.3 168.7,51 178,41.8 "/>
</svg>
